{"accessors" : [{"bufferView" : 0, "byteOffset" : 0, "componentType" : 5123, "count" : 45732, "type" : "SCALAR", "max" : [45731], "min" : [0]}, {"bufferView" : 1, "byteOffset" : 0, "componentType" : 5126, "count" : 45732, "type" : "VEC3", "max" : [54.20000076293945, 17, 53.492408752441406], "min" : [-54.20000076293945, 0, -53.492408752441406], "name" : "POSITION"}, {"bufferView" : 1, "byteOffset" : 12, "componentType" : 5126, "count" : 45732, "type" : "VEC3", "max" : [1.0000044107437134, 1.0000044107437134, 1.0000044107437134], "min" : [-1.0000044107437134, -1.0000044107437134, -1.0000044107437134], "name" : "NORMAL"}], "asset" : {"generator" : "Aspose.3D 21.12", "version" : "2.0"}, "buffers" : [{"uri" : "data:application/octet-stream;base64,", "byteLength" : 1189040}], "bufferViews" : [{"buffer" : 0, "byteOffset" : 0, "byteLength" : 91464, "target" : 34963}, {"buffer" : 0, "byteOffset" : 91468, "byteLength" : 1097568, "byteStride" : 24, "target" : 34962}], "meshes" : [{"primitives" : [{"attributes" : {"POSITION" : 1, "NORMAL" : 2}, "indices" : 0, "mode" : 4}], "name" : "ASCII"}], "nodes" : [{"mesh" : 0, "name" : "ASCII"}], "scene" : 0, "scenes" : [{"nodes" : [0]}]}