<?xml version="1.0" standalone="no"?>
<!DOCTYPE svg PUBLIC "-//W3C//DTD SVG 20010904//EN"
 "http://www.w3.org/TR/2001/REC-SVG-20010904/DTD/svg10.dtd">
<svg version="1.0" xmlns="http://www.w3.org/2000/svg"
 width="600.000000pt" height="617.000000pt" viewBox="0 0 600.000000 617.000000"
 preserveAspectRatio="xMidYMid meet">

<g transform="translate(0.000000,617.000000) scale(0.100000,-0.100000)"
fill="#000000" stroke="none">
<path d="M2735 6070 c-1009 -102 -1864 -658 -2357 -1533 -514 -914 -502 -2061
33 -2974 440 -751 1202 -1283 2057 -1437 l32 -6 0 1165 0 1165 -360 0 -360 0
0 420 0 420 360 0 360 0 0 360 c0 392 10 509 55 662 123 410 439 655 901 698
110 11 546 -1 699 -18 l60 -7 3 -377 2 -378 -278 0 c-304 0 -358 -7 -440 -58
-52 -33 -97 -97 -120 -172 -14 -47 -16 -105 -17 -380 l0 -325 413 -3 c384 -2
412 -3 412 -20 0 -9 -9 -87 -20 -172 -11 -85 -34 -261 -50 -390 -17 -129 -33
-241 -35 -247 -3 -10 -89 -13 -362 -15 l-358 -3 -3 -1164 c-1 -672 2 -1169 7
-1174 12 -12 272 36 426 78 381 105 772 305 1090 560 133 107 341 314 449 450
597 745 807 1711 571 2630 -219 853 -797 1562 -1590 1950 -295 144 -591 234
-925 280 -136 19 -526 28 -655 15z"/>
</g>
</svg>
