<?xml version="1.0" standalone="no"?>
<!DOCTYPE svg PUBLIC "-//W3C//DTD SVG 20010904//EN"
 "http://www.w3.org/TR/2001/REC-SVG-20010904/DTD/svg10.dtd">
<svg version="1.0" xmlns="http://www.w3.org/2000/svg"
 width="440.000000pt" height="450.000000pt" viewBox="0 0 440.000000 450.000000"
 preserveAspectRatio="xMidYMid meet">

<g transform="translate(0.000000,450.000000) scale(0.100000,-0.100000)"
fill="#000000" stroke="none">
<path d="M1420 4301 c-189 -51 -361 -216 -415 -397 -40 -138 -49 -240 -50
-579 0 -369 10 -477 71 -785 94 -473 241 -866 479 -1280 184 -320 387 -587
624 -818 198 -194 306 -251 497 -259 72 -4 118 -1 165 11 76 19 191 75 236
113 17 16 68 59 112 96 45 38 81 72 81 76 0 7 -113 144 -435 527 -83 99 -188
224 -234 279 -46 55 -88 102 -92 103 -5 2 -57 -37 -117 -87 -59 -50 -110 -91
-113 -91 -7 0 -121 144 -171 215 -152 219 -287 478 -369 712 -90 254 -159 648
-159 911 l0 72 150 0 150 0 0 600 0 600 -172 -1 c-132 0 -188 -4 -238 -18z"/>
<path d="M1930 3720 l0 -601 98 3 97 3 3 598 2 597 -100 0 -100 0 0 -600z"/>
<path d="M2615 1529 c-38 -32 -70 -65 -69 -72 1 -8 156 -198 345 -423 189
-225 358 -426 374 -446 17 -21 35 -38 40 -38 15 0 145 109 145 121 0 9 -703
853 -749 900 -15 16 -21 12 -86 -42z"/>
</g>
</svg>
