<?xml version="1.0" standalone="no"?>
<!DOCTYPE svg PUBLIC "-//W3C//DTD SVG 20010904//EN"
 "http://www.w3.org/TR/2001/REC-SVG-20010904/DTD/svg10.dtd">
<svg version="1.0" xmlns="http://www.w3.org/2000/svg"
 width="80.000000pt" height="80.000000pt" viewBox="0 0 80.000000 80.000000"
 preserveAspectRatio="xMidYMid meet">

<g transform="translate(0.000000,80.000000) scale(0.100000,-0.100000)"
fill="#000000" stroke="none">
<path d="M259 792 c-2 -5 -44 -22 -94 -39 l-90 -30 0 -303 0 -302 85 -48 c47
-27 91 -53 98 -60 7 -6 17 -8 22 -5 6 3 105 17 220 30 115 13 214 27 220 30
16 10 14 684 -2 690 -7 2 -105 10 -218 19 -113 8 -212 18 -221 21 -9 3 -18 2
-20 -3z m266 -42 c66 -5 132 -10 148 -10 l27 0 0 -330 0 -329 -32 -5 c-18 -3
-96 -13 -173 -21 -77 -9 -157 -18 -177 -21 l-38 -6 0 371 0 372 63 -6 c34 -3
116 -10 182 -15z m-275 -349 l0 -359 -75 41 -75 42 3 294 2 294 65 23 c36 12
68 23 73 23 4 1 7 -161 7 -358z"/>
<path d="M330 442 c0 -127 3 -233 8 -235 5 -3 308 18 320 22 1 1 1 94 0 208
l-3 207 -35 7 c-19 4 -92 11 -162 15 l-128 7 0 -231z m70 188 c0 -11 6 -20 14
-20 8 0 17 -9 21 -19 3 -10 17 -30 30 -43 l25 -25 -26 -11 c-21 -10 -23 -14
-12 -26 14 -15 43 -2 33 14 -3 5 -1 12 5 15 8 5 7 11 -1 21 -9 11 -8 18 5 32
9 10 16 24 16 30 0 7 11 12 25 12 16 0 25 6 25 15 0 17 4 18 49 9 l31 -6 0
-189 c0 -114 -4 -190 -10 -194 -6 -4 -10 13 -10 44 l0 51 -50 0 -50 0 0 75 c0
41 -3 75 -7 75 -21 -1 -53 -41 -53 -65 0 -15 4 -24 10 -20 6 4 8 15 5 24 -3
11 3 25 15 36 20 18 20 18 20 -53 l0 -72 -29 0 c-16 0 -37 -3 -47 -7 -14 -5
-16 -2 -12 20 3 14 1 32 -3 39 -6 8 -9 -1 -9 -24 0 -35 -2 -38 -30 -38 l-30 0
0 160 0 160 25 0 c18 0 25 -5 25 -20z m210 -345 c0 -44 -1 -45 -32 -45 -18 0
-70 -3 -115 -7 l-83 -6 0 46 0 46 63 4 c34 2 86 4 115 5 l52 2 0 -45z m-240
-9 c0 -25 -4 -48 -10 -51 -6 -4 -10 13 -10 44 0 28 5 51 10 51 6 0 10 -20 10
-44z"/>
<path d="M411 487 c2 -1 13 -9 24 -17 19 -14 19 -14 6 3 -7 9 -18 17 -24 17
-6 0 -8 -1 -6 -3z"/>
<path d="M410 443 c0 -18 8 -33 23 -42 21 -14 22 -13 4 6 -9 11 -15 27 -12 36
4 8 2 18 -4 22 -7 4 -11 -5 -11 -22z"/>
<path d="M476 395 c-10 -7 -16 -18 -15 -23 2 -6 12 1 22 14 21 27 19 29 -7 9z"/>
<path d="M185 665 c-5 -2 -22 -6 -37 -9 l-28 -6 0 -209 0 -209 47 -16 c26 -9
50 -16 55 -16 4 0 8 106 8 235 0 217 -1 235 -17 234 -10 0 -22 -2 -28 -4z m25
-184 c0 -160 -1 -169 -20 -174 -15 -4 -20 -14 -20 -37 0 -21 -4 -30 -12 -28
-10 4 -14 55 -16 201 l-2 196 27 4 c16 2 31 5 36 6 4 0 7 -75 7 -168z m0 -221
c0 -31 -3 -38 -15 -34 -21 8 -21 74 0 74 11 0 15 -11 15 -40z"/>
</g>
</svg>
