<?xml version="1.0" standalone="no"?>
<!DOCTYPE svg PUBLIC "-//W3C//DTD SVG 20010904//EN"
 "http://www.w3.org/TR/2001/REC-SVG-20010904/DTD/svg10.dtd">
<svg version="1.0" xmlns="http://www.w3.org/2000/svg"
 width="920.000000pt" height="512.000000pt" viewBox="0 0 920.000000 512.000000"
 preserveAspectRatio="xMidYMid meet">

<g transform="translate(0.000000,512.000000) scale(0.100000,-0.100000)"
fill="#000000" stroke="none">
<path d="M6051 4625 c-150 -34 -244 -79 -355 -168 -173 -139 -280 -349 -293
-577 -6 -106 11 -217 50 -320 24 -63 739 -1470 747 -1470 8 0 723 1407 747
1470 61 161 67 337 18 505 -76 258 -282 465 -540 540 -113 34 -277 42 -374 20z
m250 -319 c94 -20 164 -59 236 -132 189 -188 188 -481 -1 -670 -185 -185 -470
-189 -663 -10 -196 182 -201 490 -10 680 121 122 271 167 438 132z"/>
<path d="M2519 2079 l-479 -959 640 -320 640 -320 640 320 640 320 640 -320
640 -320 640 320 640 320 -267 535 c-148 294 -270 535 -273 535 -3 0 -45 -79
-93 -175 l-89 -174 96 -183 c52 -101 117 -231 144 -289 l50 -106 -364 -183
c-200 -101 -366 -181 -369 -178 -3 3 -60 280 -128 616 l-122 611 24 25 23 25
-77 149 -77 149 -37 -40 -37 -40 -482 322 -482 321 -482 -321 -481 -321 -319
319 -319 320 -480 -958z m1921 -106 l-1 -578 -444 -221 c-320 -159 -445 -217
-445 -205 1 9 51 268 113 576 l112 560 330 222 c182 122 331 222 333 222 1 1
2 -259 2 -576z m1097 -428 c62 -308 112 -567 113 -576 0 -12 -123 45 -445 205
l-444 221 -1 578 0 577 332 -222 333 -223 112 -560z m-2204 -26 c-68 -337
-125 -614 -127 -617 -3 -2 -169 78 -370 178 l-365 183 18 36 c10 20 148 298
307 619 l288 582 186 -185 185 -185 -122 -611z"/>
</g>
</svg>
