<?xml version="1.0" standalone="no"?>
<!DOCTYPE svg PUBLIC "-//W3C//DTD SVG 20010904//EN"
 "http://www.w3.org/TR/2001/REC-SVG-20010904/DTD/svg10.dtd">
<svg version="1.0" xmlns="http://www.w3.org/2000/svg"
 width="920.000000pt" height="920.000000pt" viewBox="0 0 920.000000 920.000000"
 preserveAspectRatio="xMidYMid meet">

<g transform="translate(0.000000,920.000000) scale(0.100000,-0.100000)"
fill="#000000" stroke="none">
<path d="M4282 9075 c-511 -49 -990 -205 -1331 -434 -333 -224 -566 -507 -700
-851 -89 -226 -129 -432 -138 -710 l-6 -176 -46 -18 c-145 -59 -272 -175 -345
-315 -79 -153 -81 -166 -81 -651 0 -479 1 -485 76 -640 34 -69 58 -101 128
-170 149 -147 283 -200 511 -200 l127 0 1 1118 c1 952 4 1135 17 1237 70 537
359 934 860 1183 369 184 846 284 1279 269 362 -13 720 -91 1018 -222 525
-231 835 -606 940 -1135 22 -115 22 -116 26 -1282 l3 -1168 130 0 c154 0 218
14 336 71 175 86 306 251 359 451 24 93 25 881 0 978 -50 200 -183 364 -368
453 l-87 42 0 106 c-2 318 -73 647 -195 904 -135 285 -369 546 -661 738 -114
75 -357 193 -504 246 -410 148 -932 216 -1349 176z"/>
<path d="M4375 8244 c-366 -38 -682 -142 -922 -301 -377 -251 -583 -617 -635
-1131 -16 -159 -16 -789 0 -972 25 -274 86 -637 120 -709 24 -51 194 -217 296
-290 183 -130 419 -240 652 -306 l92 -26 52 33 53 33 392 0 392 0 48 -30 c27
-17 63 -50 80 -74 27 -39 30 -50 30 -125 0 -74 -3 -87 -30 -131 -21 -33 -47
-57 -85 -79 l-55 -31 -385 0 c-378 0 -386 0 -426 22 -23 12 -60 43 -83 69 -39
45 -48 49 -155 80 -230 66 -448 160 -619 268 -48 30 -87 53 -87 51 0 -2 20
-52 45 -111 95 -226 240 -474 366 -623 32 -39 59 -73 59 -76 0 -4 -341 -176
-757 -383 -417 -208 -789 -398 -828 -422 -548 -347 -966 -851 -1168 -1410 -79
-220 -147 -552 -147 -726 0 -125 70 -220 217 -296 86 -45 135 -61 306 -98 563
-123 1492 -250 2187 -300 80 -6 174 -12 210 -15 387 -28 1454 -31 1830 -6 350
24 467 33 710 57 623 61 1280 158 1757 260 256 55 357 98 454 194 97 96 107
173 59 465 -43 264 -112 479 -225 710 -146 298 -306 518 -556 762 -271 264
-498 419 -879 598 -229 109 -1190 591 -1205 606 -5 6 4 23 27 47 118 124 279
389 385 637 146 338 259 760 307 1140 54 422 57 1043 6 1350 -114 699 -583
1134 -1365 1266 -116 19 -423 33 -520 23z m1106 -4934 c61 -31 109 -79 109
-109 0 -18 -38 -63 -149 -175 -155 -158 -171 -178 -171 -221 0 -43 23 -75 137
-186 115 -113 136 -129 178 -129 43 0 63 16 221 171 165 163 179 171 229 122
15 -16 39 -50 53 -78 23 -43 27 -63 27 -135 0 -99 -9 -121 -116 -271 -83 -117
-154 -184 -244 -227 -91 -45 -168 -59 -365 -67 l-165 -7 -128 -126 -127 -127
-222 223 -223 222 126 127 127 128 11 197 c14 259 39 337 147 457 67 74 258
207 334 232 44 15 164 3 211 -21z m-1739 -337 c207 -210 216 -223 204 -301
l-7 -37 521 -520 520 -520 77 77 c86 83 108 98 150 98 35 0 88 -31 104 -61 17
-32 15 -91 -4 -120 l-16 -25 335 -334 c235 -235 343 -350 362 -385 23 -43 27
-62 27 -140 0 -105 -20 -158 -86 -224 -66 -66 -119 -86 -224 -86 -75 0 -98 4
-135 24 -29 15 -164 141 -385 362 -322 320 -342 339 -360 324 -26 -19 -105
-19 -133 1 -45 31 -65 101 -41 147 6 12 46 57 87 100 l77 77 -519 519 -520
520 -46 -6 c-32 -4 -58 0 -81 11 -19 9 -120 101 -224 206 l-190 190 150 150
c82 82 152 150 155 150 4 0 94 -89 202 -197z m698 -1315 l221 -222 -493 -494
c-365 -365 -506 -500 -543 -519 -67 -35 -171 -42 -246 -18 -75 25 -169 119
-194 194 -23 71 -17 178 14 241 16 31 174 196 519 543 273 273 498 497 499
497 1 0 102 -100 223 -222z"/>
<path d="M3415 817 c-44 -44 -53 -91 -27 -149 21 -48 66 -78 117 -78 54 0 110
45 126 102 8 32 6 46 -10 82 -23 53 -61 76 -127 76 -39 0 -51 -5 -79 -33z"/>
</g>
</svg>
