<?xml version="1.0" standalone="no"?>
<!DOCTYPE svg PUBLIC "-//W3C//DTD SVG 20010904//EN"
 "http://www.w3.org/TR/2001/REC-SVG-20010904/DTD/svg10.dtd">
<svg version="1.0" xmlns="http://www.w3.org/2000/svg"
 width="250.000000pt" height="250.000000pt" viewBox="0 0 250.000000 250.000000"
 preserveAspectRatio="xMidYMid meet">

<g transform="translate(0.000000,250.000000) scale(0.100000,-0.100000)"
fill="#000000" stroke="none">
<path d="M466 2172 c-2 -4 -3 -39 -2 -79 2 -70 2 -72 40 -102 37 -30 43 -31
130 -31 83 0 96 3 134 27 l43 28 -3 80 -3 80 -167 2 c-92 1 -169 -1 -172 -5z"/>
<path d="M284 2143 c11 -11 125 -12 132 -2 3 5 -27 9 -67 9 -40 0 -69 -3 -65
-7z"/>
<path d="M865 2141 c7 -12 124 -11 131 0 3 5 -27 9 -66 9 -42 0 -69 -4 -65 -9z"/>
<path d="M345 2079 c-33 -3 -58 -7 -55 -8 15 -8 120 -9 125 -1 9 14 -6 16 -70
9z"/>
<path d="M864 2072 c6 -11 111 -10 122 1 4 4 -23 7 -60 7 -37 0 -65 -4 -62 -8z"/>
<path d="M557 1924 c-4 -4 -7 -18 -7 -31 0 -24 2 -24 80 -26 14 0 42 0 63 1
36 2 38 4 35 30 -3 27 -4 27 -83 30 -45 1 -84 0 -88 -4z"/>
<path d="M610 1816 c0 -14 5 -28 10 -31 6 -3 10 -15 10 -26 0 -10 5 -19 10
-19 6 0 10 7 10 15 0 8 5 24 12 34 16 26 3 51 -27 51 -20 0 -25 -5 -25 -24z"/>
<path d="M548 1693 c-12 -3 -18 -14 -18 -34 0 -40 -40 -79 -79 -79 -42 0 -59
-32 -31 -60 27 -27 27 -83 -1 -109 -31 -29 -18 -57 31 -65 44 -7 76 -42 66
-73 -12 -39 34 -63 64 -33 26 26 78 26 106 -1 33 -31 60 -18 68 31 7 44 36 70
78 70 29 0 57 33 38 45 -6 3 -17 19 -25 35 -17 33 -7 74 23 96 26 19 0 59 -39
60 -39 2 -60 23 -68 71 -7 43 -32 55 -61 28 -27 -25 -91 -22 -108 4 -8 12 -17
20 -21 20 -3 -1 -14 -3 -23 -6z m149 -175 c45 -42 21 -128 -40 -143 -62 -16
-121 56 -96 117 6 15 19 33 28 38 29 17 83 11 108 -12z"/>
<path d="M1517 1608 c-133 -15 -271 -82 -371 -182 -75 -74 -125 -154 -162
-261 -25 -70 -28 -95 -28 -200 -1 -100 3 -132 23 -190 61 -183 171 -312 337
-394 89 -44 168 -61 284 -61 222 0 388 83 520 261 82 111 120 212 127 343 7
129 -12 222 -68 336 -75 152 -235 284 -399 331 -64 17 -184 25 -263 17z m255
-44 c187 -55 354 -213 418 -396 33 -92 38 -267 12 -365 -54 -202 -227 -377
-430 -437 -207 -61 -444 0 -601 153 -411 401 -105 1099 466 1065 46 -3 107
-12 135 -20z"/>
<path d="M1491 1535 c-150 -28 -304 -133 -380 -259 -145 -241 -112 -526 83
-722 232 -232 604 -226 832 14 64 66 128 190 145 280 16 86 7 232 -20 306 -97
274 -376 435 -660 381z m149 -490 c73 -38 67 -133 -11 -165 -27 -12 -36 -11
-64 4 -33 18 -55 52 -55 85 0 34 55 87 93 90 4 1 21 -6 37 -14z"/>
<path d="M770 1005 c-10 -13 -52 -15 -261 -15 -213 0 -249 -2 -249 -15 0 -8
10 -17 23 -20 12 -3 157 -4 322 -3 l300 3 3 24 c2 13 -2 28 -10 32 -23 15
-114 10 -128 -6z"/>
<path d="M345 910 c8 -14 555 -14 555 0 0 6 -100 10 -281 10 -184 0 -278 -3
-274 -10z"/>
<path d="M350 860 c9 -6 124 -10 275 -10 151 0 266 4 275 10 10 6 -84 10 -275
10 -191 0 -285 -4 -275 -10z"/>
<path d="M345 810 c6 -9 564 -4 574 6 2 2 -127 4 -288 4 -188 0 -290 -3 -286
-10z"/>
<path d="M341 765 c7 -6 580 -7 587 -1 3 3 -129 6 -293 6 -164 0 -296 -2 -294
-5z"/>
<path d="M345 720 c-4 -7 99 -10 302 -10 203 0 303 4 293 10 -21 13 -587 13
-595 0z"/>
<path d="M345 670 c-4 -7 102 -10 312 -10 209 0 313 4 303 10 -21 13 -607 13
-615 0z"/>
<path d="M345 620 c-4 -7 107 -10 325 -10 218 0 329 3 325 10 -8 14 -642 14
-650 0z"/>
<path d="M345 570 c-4 -7 112 -10 340 -10 228 0 344 3 340 10 -8 14 -672 14
-680 0z"/>
<path d="M345 520 c-4 -7 117 -10 354 -10 234 0 361 4 361 10 0 6 -125 10
-354 10 -226 0 -357 -4 -361 -10z"/>
<path d="M345 470 c-4 -7 127 -10 387 -10 257 0 388 4 378 10 -21 13 -757 13
-765 0z"/>
<path d="M345 420 c4 -6 153 -10 416 -10 266 0 409 3 409 10 0 7 -145 10 -416
10 -274 0 -413 -3 -409 -10z"/>
<path d="M265 370 c-16 -26 15 -30 250 -30 152 0 246 -4 250 -10 8 -13 322
-13 330 0 3 6 50 10 103 10 l97 1 -35 19 c-33 18 -61 19 -512 20 -308 0 -479
-4 -483 -10z"/>
</g>
</svg>
