<?xml version="1.0" standalone="no"?>
<!DOCTYPE svg PUBLIC "-//W3C//DTD SVG 20010904//EN"
 "http://www.w3.org/TR/2001/REC-SVG-20010904/DTD/svg10.dtd">
<svg version="1.0" xmlns="http://www.w3.org/2000/svg"
 width="250.000000pt" height="250.000000pt" viewBox="0 0 250.000000 250.000000"
 preserveAspectRatio="xMidYMid meet">

<g transform="translate(0.000000,250.000000) scale(0.100000,-0.100000)"
fill="#000000" stroke="none">
<path d="M657 2303 c-4 -3 -7 -170 -7 -370 l0 -363 143 -1 c78 0 194 -1 257
-2 l115 -2 5 -50 5 -50 47 -3 47 -3 3 53 3 53 250 2 c137 1 255 5 262 7 18 7
19 706 1 724 -9 9 -149 12 -568 12 -306 0 -560 -3 -563 -7z m1083 -368 l0
-315 -520 0 -520 0 0 315 0 315 520 0 520 0 0 -315z"/>
<path d="M1367 2109 c-48 -33 -85 -64 -82 -68 9 -16 165 -131 176 -131 19 0
191 132 182 140 -26 22 -173 120 -180 120 -5 0 -49 -27 -96 -61z"/>
<path d="M790 2065 c0 -23 3 -25 49 -25 47 0 49 -1 53 -30 3 -17 2 -32 0 -35
-3 -3 -27 -5 -54 -5 -48 0 -49 -1 -46 -27 3 -28 5 -29 69 -32 22 -1 28 -7 31
-31 3 -16 1 -31 -4 -31 -4 -1 -12 -3 -18 -4 -5 -1 -26 -3 -45 -4 -30 -1 -35
-4 -35 -26 0 -24 2 -25 64 -25 92 0 96 6 96 146 0 64 -5 124 -10 135 -9 16
-22 19 -80 19 -68 0 -70 -1 -70 -25z"/>
<path d="M1000 1939 l0 -151 66 4 c60 4 70 7 95 36 27 30 29 39 29 108 0 120
-28 153 -127 154 l-63 0 0 -151z m120 81 c15 -15 20 -33 20 -74 0 -61 -20 -94
-60 -98 -25 -3 -25 -3 -28 95 l-3 97 26 0 c14 0 34 -9 45 -20z"/>
<path d="M1270 1921 l0 -80 81 -60 c44 -34 84 -61 89 -61 4 0 7 35 6 77 l-1
77 -80 63 c-44 34 -83 62 -87 63 -5 0 -8 -36 -8 -79z"/>
<path d="M1563 1938 l-83 -61 0 -79 c0 -43 3 -78 6 -78 4 0 42 26 85 58 l78
57 1 83 c0 45 -1 82 -2 82 -2 0 -40 -28 -85 -62z"/>
<path d="M917 1449 c-66 -86 -93 -79 307 -79 289 0 355 2 349 13 -4 7 -26 36
-48 65 l-39 52 -73 0 c-58 0 -73 -3 -73 -15 0 -12 13 -15 58 -15 49 0 62 -4
82 -25 13 -14 21 -27 18 -30 -3 -3 -130 -4 -282 -3 l-278 3 22 28 c19 24 28
27 81 27 46 0 59 3 59 15 0 12 -14 15 -72 14 l-73 0 -38 -50z"/>
<path d="M1050 1156 l0 -94 39 -31 c38 -30 41 -31 151 -31 l113 0 44 36 44 36
-3 86 -3 87 -192 3 -193 2 0 -94z"/>
<path d="M850 1205 c0 -12 16 -15 80 -15 64 0 80 3 80 15 0 12 -16 15 -80 15
-64 0 -80 -3 -80 -15z"/>
<path d="M1470 1205 c0 -12 16 -15 80 -15 64 0 80 3 80 15 0 12 -16 15 -80 15
-64 0 -80 -3 -80 -15z"/>
<path d="M854 1141 c-15 -15 6 -21 76 -21 47 0 80 4 80 10 0 6 -6 11 -12 11
-33 4 -140 4 -144 0z"/>
<path d="M1474 1138 c-11 -18 8 -23 81 -20 99 5 96 25 -4 26 -40 1 -75 -2 -77
-6z"/>
<path d="M1140 936 l0 -35 100 -3 100 -3 0 38 0 37 -100 0 -100 0 0 -34z"/>
<path d="M1200 841 c0 -16 6 -31 15 -35 8 -3 15 -17 15 -31 0 -16 6 -25 15
-25 10 0 15 10 15 30 0 17 5 30 10 30 6 0 10 14 10 30 0 28 -2 30 -40 30 -37
0 -40 -2 -40 -29z"/>
<path d="M1147 686 c-64 -23 -114 -63 -167 -133 -40 -53 -60 -70 -91 -79 -84
-25 -143 -96 -156 -189 l-6 -45 67 0 c64 0 66 1 66 25 0 36 23 78 60 109 81
68 220 3 220 -104 l0 -30 114 0 113 0 7 42 c5 29 18 52 45 80 34 33 45 38 85
38 26 0 60 -7 77 -15 38 -20 69 -70 69 -112 0 -33 0 -33 50 -33 49 0 50 0 50
31 0 68 -61 147 -145 185 -41 19 -59 36 -94 89 -24 37 -61 80 -84 96 -76 55
-197 74 -280 45z m83 -116 l0 -80 -115 0 c-63 0 -115 3 -115 8 0 4 20 30 45
59 48 54 113 93 158 93 l27 0 0 -80z m127 59 c44 -21 123 -102 123 -125 0 -11
-22 -14 -100 -14 l-100 0 0 80 c0 92 4 94 77 59z"/>
<path d="M973 353 c-47 -9 -78 -83 -57 -138 9 -23 57 -45 98 -45 26 0 40 7 60
31 29 35 33 67 11 108 -12 24 -63 54 -84 50 -3 -1 -16 -4 -28 -6z"/>
<path d="M1468 344 c-84 -45 -53 -174 42 -174 101 0 135 132 46 174 -41 19
-53 19 -88 0z"/>
</g>
</svg>
