<?xml version="1.0" standalone="no"?>
<!DOCTYPE svg PUBLIC "-//W3C//DTD SVG 20010904//EN"
 "http://www.w3.org/TR/2001/REC-SVG-20010904/DTD/svg10.dtd">
<svg version="1.0" xmlns="http://www.w3.org/2000/svg"
 width="980.000000pt" height="980.000000pt" viewBox="0 0 980.000000 980.000000"
 preserveAspectRatio="xMidYMid meet">

<g transform="translate(0.000000,980.000000) scale(0.100000,-0.100000)"
fill="#000000" stroke="none">
<path d="M3395 8279 c-869 -83 -1600 -712 -1820 -1568 -61 -235 -58 -156 -62
-1716 -3 -1010 -1 -1470 7 -1567 72 -875 692 -1620 1533 -1843 289 -77 293
-77 1937 -72 1527 4 1450 2 1676 51 208 45 486 163 674 286 536 353 881 925
939 1560 14 153 15 2822 1 2975 -93 1007 -886 1802 -1890 1894 -140 13 -2860
13 -2995 0z m2716 -650 c386 -39 730 -197 1007 -463 298 -286 475 -656 512
-1073 8 -79 10 -503 7 -1278 -4 -1254 -2 -1196 -58 -1405 -152 -570 -601
-1023 -1174 -1184 -218 -62 -153 -59 -1425 -63 -799 -3 -1201 -1 -1279 7 -414
39 -781 215 -1063 507 -274 285 -430 627 -468 1024 -8 78 -10 480 -7 1279 4
1272 1 1207 63 1425 95 338 294 640 564 858 252 203 575 336 890 366 131 13
2308 13 2431 0z"/>
<path d="M6591 7149 c-226 -31 -390 -220 -391 -451 0 -74 25 -165 63 -230 38
-65 128 -145 204 -181 94 -44 220 -50 324 -17 322 104 420 511 180 751 -66 66
-157 115 -230 124 -25 3 -57 7 -71 9 -14 1 -49 -1 -79 -5z"/>
<path d="M4734 6655 c-414 -61 -801 -270 -1076 -580 -211 -239 -356 -529 -419
-841 -27 -136 -37 -432 -19 -569 55 -409 242 -783 531 -1060 251 -240 544
-395 880 -465 600 -124 1228 73 1652 520 299 315 461 692 492 1145 7 109 -9
304 -36 439 -119 587 -529 1077 -1089 1302 -122 49 -311 98 -440 114 -114 14
-364 11 -476 -5z m465 -715 c334 -68 603 -276 759 -585 76 -153 107 -313 99
-518 -6 -170 -31 -269 -106 -422 -110 -223 -276 -387 -504 -495 -526 -250
-1152 -34 -1417 490 -133 264 -147 596 -36 879 114 288 369 524 672 622 161
52 366 63 533 29z"/>
</g>
</svg>
