<?xml version="1.0" standalone="no"?>
<!DOCTYPE svg PUBLIC "-//W3C//DTD SVG 20010904//EN"
 "http://www.w3.org/TR/2001/REC-SVG-20010904/DTD/svg10.dtd">
<svg version="1.0" xmlns="http://www.w3.org/2000/svg"
 width="512.000000pt" height="512.000000pt" viewBox="0 0 512.000000 512.000000"
 preserveAspectRatio="xMidYMid meet">

<g transform="translate(0.000000,512.000000) scale(0.100000,-0.100000)"
fill="#000000" stroke="none">
<path d="M2365 4684 c-16 -2 -65 -9 -107 -15 -43 -5 -132 -23 -198 -39 -596
-146 -1118 -568 -1389 -1124 -146 -298 -212 -587 -212 -926 0 -345 70 -648
222 -952 27 -54 49 -104 49 -112 0 -7 -65 -254 -145 -547 -80 -293 -143 -534
-141 -536 2 -2 253 62 559 142 l555 146 89 -44 c403 -202 916 -264 1368 -166
412 91 772 292 1070 601 255 263 426 560 520 904 56 206 70 312 70 559 0 281
-24 440 -105 685 -40 122 -162 370 -238 483 -281 420 -701 730 -1172 866 -197
56 -314 73 -550 76 -118 2 -228 1 -245 -1z m361 -355 c700 -68 1288 -532 1508
-1190 340 -1018 -302 -2099 -1360 -2290 -142 -26 -429 -31 -559 -10 -119 19
-269 58 -370 97 -78 30 -247 114 -312 154 -18 12 -62 3 -349 -73 -180 -48
-329 -85 -332 -83 -2 3 35 148 83 323 l87 319 -52 84 c-402 662 -329 1496 185
2083 360 412 929 639 1471 586z"/>
<path d="M1783 3551 c-49 -12 -89 -42 -144 -107 -131 -154 -175 -352 -124
-554 35 -138 113 -283 246 -461 269 -357 558 -598 882 -735 355 -150 538 -168
732 -74 92 44 186 123 215 180 40 78 65 241 42 277 -9 14 -390 204 -458 229
-67 23 -95 15 -136 -43 -68 -95 -160 -198 -186 -209 -32 -14 -60 -5 -188 58
-223 110 -379 244 -529 453 -75 105 -98 151 -91 181 4 13 29 49 57 80 61 67
106 136 114 174 5 21 -17 83 -94 266 -55 131 -111 248 -123 260 -19 18 -39 23
-103 27 -44 3 -94 2 -112 -2z"/>
</g>
</svg>
